<svg width="24" height="24" viewBox="0 0 24 24" fill="none" xmlns="http://www.w3.org/2000/svg">
<mask id="mask0_5381_2427" style="mask-type:alpha" maskUnits="userSpaceOnUse" x="0" y="0" width="24" height="24">
<rect width="24" height="24" fill="#D9D9D9"/>
</mask>
<g mask="url(#mask0_5381_2427)">
<path d="M10.6 16.6L17.65 9.55L16.25 8.15L10.6 13.8L7.74997 10.95L6.34997 12.35L10.6 16.6ZM12 22C10.6166 22 9.31664 21.7375 8.09997 21.2125C6.8833 20.6875 5.82497 19.975 4.92497 19.075C4.02497 18.175 3.31247 17.1167 2.78747 15.9C2.26247 14.6833 1.99997 13.3833 1.99997 12C1.99997 10.6167 2.26247 9.31667 2.78747 8.1C3.31247 6.88333 4.02497 5.825 4.92497 4.925C5.82497 4.025 6.8833 3.3125 8.09997 2.7875C9.31664 2.2625 10.6166 2 12 2C13.3833 2 14.6833 2.2625 15.9 2.7875C17.1166 3.3125 18.175 4.025 19.075 4.925C19.975 5.825 20.6875 6.88333 21.2125 8.1C21.7375 9.31667 22 10.6167 22 12C22 13.3833 21.7375 14.6833 21.2125 15.9C20.6875 17.1167 19.975 18.175 19.075 19.075C18.175 19.975 17.1166 20.6875 15.9 21.2125C14.6833 21.7375 13.3833 22 12 22Z" fill="#FDFEFD"/>
</g>
</svg>
