<svg width="44" height="44" viewBox="0 0 44 44" fill="none" xmlns="http://www.w3.org/2000/svg">
<g clip-path="url(#clip0_2273_2765)">
<path d="M22 11C15.9253 11 11 15.9253 11 22C11 27.5147 15.0627 32.0687 20.3555 32.8643V24.915H17.6339V22.0238H20.3555V20.0998C20.3555 16.9143 21.9074 15.5164 24.5548 15.5164C25.8225 15.5164 26.4935 15.6108 26.8107 15.653V18.1766H25.0048C23.881 18.1766 23.4887 19.2427 23.4887 20.4435V22.0238H26.7822L26.3358 24.915H23.4887V32.8873C28.8576 32.1594 33 27.5688 33 22C33 15.9253 28.0748 11 22 11Z" fill="#E10013"/>
</g>
<rect x="0.5" y="0.5" width="43" height="43" rx="21.5" stroke="#E10013"/>
<defs>
<clipPath id="clip0_2273_2765">
<rect width="22" height="22" fill="white" transform="translate(11 11)"/>
</clipPath>
</defs>
</svg>
