<svg width="44" height="44" viewBox="0 0 44 44" fill="none" xmlns="http://www.w3.org/2000/svg">
<path d="M29.5832 12.2502C30.1578 12.2502 30.7089 12.4785 31.1153 12.8848C31.5216 13.2911 31.7499 13.8422 31.7499 14.4168V29.5835C31.7499 30.1582 31.5216 30.7093 31.1153 31.1156C30.7089 31.5219 30.1578 31.7502 29.5832 31.7502H14.4165C13.8419 31.7502 13.2908 31.5219 12.8845 31.1156C12.4782 30.7093 12.2499 30.1582 12.2499 29.5835V14.4168C12.2499 13.8422 12.4782 13.2911 12.8845 12.8848C13.2908 12.4785 13.8419 12.2502 14.4165 12.2502H29.5832ZM29.0415 29.0418V23.3002C29.0415 22.3635 28.6695 21.4652 28.0071 20.8029C27.3448 20.1406 26.4465 19.7685 25.5099 19.7685C24.589 19.7685 23.5165 20.3318 22.9965 21.1768V19.9743H19.974V29.0418H22.9965V23.701C22.9965 22.8668 23.6682 22.1843 24.5024 22.1843C24.9046 22.1843 25.2904 22.3441 25.5748 22.6286C25.8593 22.913 26.019 23.2988 26.019 23.701V29.0418H29.0415ZM16.4532 18.2735C16.9359 18.2735 17.3988 18.0818 17.7401 17.7405C18.0815 17.3991 18.2732 16.9362 18.2732 16.4535C18.2732 15.446 17.4607 14.6227 16.4532 14.6227C15.9676 14.6227 15.502 14.8156 15.1586 15.1589C14.8153 15.5023 14.6224 15.9679 14.6224 16.4535C14.6224 17.461 15.4457 18.2735 16.4532 18.2735ZM17.959 29.0418V19.9743H14.9582V29.0418H17.959Z" fill="#E10013"/>
<rect x="0.5" y="0.5" width="43" height="43" rx="21.5" stroke="#E10013"/>
</svg>
