<svg width="44" height="44" viewBox="0 0 44 44" fill="none" xmlns="http://www.w3.org/2000/svg">
<mask id="mask0_2273_2771" style="mask-type:alpha" maskUnits="userSpaceOnUse" x="5" y="5" width="34" height="34">
<rect x="5.02942" y="22" width="24" height="24" transform="rotate(-45 5.02942 22)" fill="#D9D9D9"/>
</mask>
<g mask="url(#mask0_2273_2771)">
<path d="M24.8285 26.2426L22 29.0711C21.0219 30.0492 19.8434 30.5383 18.4645 30.5383C17.0856 30.5383 15.9071 30.0492 14.929 29.0711C13.9508 28.0929 13.4617 26.9144 13.4617 25.5355C13.4617 24.1567 13.9508 22.9782 14.929 22L17.7574 19.1716L19.1716 20.5858L16.3432 23.4142C15.7539 24.0035 15.4593 24.7106 15.4593 25.5355C15.4593 26.3605 15.7539 27.0676 16.3432 27.6568C16.9324 28.2461 17.6395 28.5407 18.4645 28.5407C19.2895 28.5407 19.9966 28.2461 20.5858 27.6568L23.4142 24.8284L24.8285 26.2426ZM19.8787 25.5355L18.4645 24.1213L24.1214 18.4645L25.5356 19.8787L19.8787 25.5355ZM26.2427 24.8284L24.8285 23.4142L27.6569 20.5858C28.2461 19.9965 28.5408 19.2894 28.5408 18.4645C28.5408 17.6395 28.2461 16.9324 27.6569 16.3431C27.0676 15.7539 26.3605 15.4593 25.5356 15.4593C24.7106 15.4593 24.0035 15.7539 23.4142 16.3431L20.5858 19.1716L19.1716 17.7573L22 14.9289C22.9782 13.9508 24.1567 13.4617 25.5356 13.4617C26.9144 13.4617 28.0929 13.9508 29.0711 14.9289C30.0493 15.9071 30.5383 17.0856 30.5383 18.4645C30.5383 19.8433 30.0493 21.0218 29.0711 22L26.2427 24.8284Z" fill="#E10013"/>
</g>
<rect x="0.5" y="0.5" width="43" height="43" rx="21.5" stroke="#E10013"/>
</svg>
