<svg width="31" height="31" viewBox="0 0 31 31" fill="none" xmlns="http://www.w3.org/2000/svg">
<mask id="mask0_1_5" style="mask-type:alpha" maskUnits="userSpaceOnUse" x="0" y="0" width="31" height="31">
<rect width="31" height="31" fill="#D9D9D9"/>
</mask>
<g mask="url(#mask0_1_5)">
<path d="M12.2708 21.3125L21.3125 15.5L12.2708 9.68751V21.3125ZM15.5 28.4167C13.7132 28.4167 12.034 28.0776 10.4625 27.3995C8.89097 26.7214 7.52396 25.8011 6.36146 24.6386C5.19896 23.4761 4.27864 22.109 3.60052 20.5375C2.92239 18.966 2.58333 17.2868 2.58333 15.5C2.58333 13.7132 2.92239 12.034 3.60052 10.4625C4.27864 8.89098 5.19896 7.52397 6.36146 6.36147C7.52396 5.19897 8.89097 4.27866 10.4625 3.60053C12.034 2.92241 13.7132 2.58334 15.5 2.58334C17.2868 2.58334 18.966 2.92241 20.5375 3.60053C22.109 4.27866 23.476 5.19897 24.6385 6.36147C25.801 7.52397 26.7214 8.89098 27.3995 10.4625C28.0776 12.034 28.4167 13.7132 28.4167 15.5C28.4167 17.2868 28.0776 18.966 27.3995 20.5375C26.7214 22.109 25.801 23.4761 24.6385 24.6386C23.476 25.8011 22.109 26.7214 20.5375 27.3995C18.966 28.0776 17.2868 28.4167 15.5 28.4167ZM15.5 25.8333C18.3847 25.8333 20.8281 24.8323 22.8302 22.8302C24.8323 20.8281 25.8333 18.3847 25.8333 15.5C25.8333 12.6153 24.8323 10.1719 22.8302 8.1698C20.8281 6.16772 18.3847 5.16668 15.5 5.16668C12.6153 5.16668 10.1719 6.16772 8.16979 8.1698C6.16771 10.1719 5.16667 12.6153 5.16667 15.5C5.16667 18.3847 6.16771 20.8281 8.16979 22.8302C10.1719 24.8323 12.6153 25.8333 15.5 25.8333Z" fill="#014AB9"/>
</g>
</svg>
