<svg xmlns="http://www.w3.org/2000/svg" width="32" height="33" viewBox="0 0 32 33" fill="none">
  <mask id="mask0_4841_1178" style="mask-type:alpha" maskUnits="userSpaceOnUse" x="0" y="0" width="32" height="33">
    <rect y="0.5" width="32" height="32" fill="#D9D9D9"/>
  </mask>
  <g mask="url(#mask0_4841_1178)">
    <path d="M14.1334 22.6333L23.5334 13.2333L21.6667 11.3667L14.1334 18.9L10.3334 15.1L8.46669 16.9667L14.1334 22.6333ZM16 29.8333C14.1556 29.8333 12.4222 29.4833 10.8 28.7833C9.1778 28.0833 7.76669 27.1333 6.56669 25.9333C5.36669 24.7333 4.41669 23.3222 3.71669 21.7C3.01669 20.0778 2.66669 18.3444 2.66669 16.5C2.66669 14.6556 3.01669 12.9222 3.71669 11.3C4.41669 9.67778 5.36669 8.26667 6.56669 7.06667C7.76669 5.86667 9.1778 4.91667 10.8 4.21667C12.4222 3.51667 14.1556 3.16667 16 3.16667C17.8445 3.16667 19.5778 3.51667 21.2 4.21667C22.8222 4.91667 24.2334 5.86667 25.4334 7.06667C26.6334 8.26667 27.5834 9.67778 28.2834 11.3C28.9834 12.9222 29.3334 14.6556 29.3334 16.5C29.3334 18.3444 28.9834 20.0778 28.2834 21.7C27.5834 23.3222 26.6334 24.7333 25.4334 25.9333C24.2334 27.1333 22.8222 28.0833 21.2 28.7833C19.5778 29.4833 17.8445 29.8333 16 29.8333Z" fill="#012C6F"/>
  </g>
</svg>