<svg width="27" height="27" viewBox="0 0 27 27" fill="none" xmlns="http://www.w3.org/2000/svg">
<path d="M11.4667 19.4667L20.8667 10.0667L19 8.2L11.4667 15.7333L7.66667 11.9333L5.8 13.8L11.4667 19.4667ZM13.3333 26.6667C11.4889 26.6667 9.75555 26.3167 8.13333 25.6167C6.51111 24.9167 5.1 23.9667 3.9 22.7667C2.7 21.5667 1.75 20.1556 1.05 18.5333C0.35 16.9111 0 15.1778 0 13.3333C0 11.4889 0.35 9.75555 1.05 8.13333C1.75 6.51111 2.7 5.1 3.9 3.9C5.1 2.7 6.51111 1.75 8.13333 1.05C9.75555 0.35 11.4889 0 13.3333 0C15.1778 0 16.9111 0.35 18.5333 1.05C20.1556 1.75 21.5667 2.7 22.7667 3.9C23.9667 5.1 24.9167 6.51111 25.6167 8.13333C26.3167 9.75555 26.6667 11.4889 26.6667 13.3333C26.6667 15.1778 26.3167 16.9111 25.6167 18.5333C24.9167 20.1556 23.9667 21.5667 22.7667 22.7667C21.5667 23.9667 20.1556 24.9167 18.5333 25.6167C16.9111 26.3167 15.1778 26.6667 13.3333 26.6667Z" fill="#014AB9"/>
</svg>
