<svg width="44" height="44" viewBox="0 0 44 44" fill="none" xmlns="http://www.w3.org/2000/svg">
<path d="M32.6077 15.5784C31.8124 15.9316 30.9581 16.1693 30.0614 16.2765C30.9772 15.728 31.6795 14.8596 32.0102 13.8241C31.1542 14.3319 30.2052 14.7008 29.1947 14.9003C28.3861 14.0385 27.2343 13.5 25.9595 13.5C23.5112 13.5 21.5267 15.4853 21.5267 17.9327C21.5267 18.2801 21.5666 18.6192 21.6414 18.9424C17.9574 18.758 14.6915 16.9928 12.5042 14.3103C12.1236 14.9651 11.905 15.7263 11.905 16.5399C11.905 18.0773 12.687 19.4344 13.8762 20.2289C13.1499 20.2056 12.4659 20.0062 11.8684 19.6746C11.8684 19.6937 11.8684 19.7112 11.8684 19.7303C11.8684 21.8785 13.3959 23.6702 15.4244 24.0766C15.053 24.178 14.6607 24.232 14.256 24.232C13.9709 24.232 13.6926 24.2037 13.4225 24.153C13.9867 25.914 15.6239 27.1963 17.5635 27.232C16.0469 28.4212 14.1355 29.1301 12.0579 29.1301C11.7006 29.1301 11.3474 29.1093 11 29.0678C12.9621 30.3251 15.2915 31.0589 17.7954 31.0589C25.9495 31.0589 30.4071 24.3043 30.4071 18.4463C30.4071 18.2543 30.403 18.0632 30.3947 17.8729C31.2615 17.2471 32.0135 16.4668 32.6077 15.5784Z" fill="#E10013"/>
<rect x="0.5" y="0.5" width="43" height="43" rx="21.5" stroke="#E10013"/>
</svg>
